<?xml version="1.0" encoding="UTF-8" standalone="no"?>
<!DOCTYPE svg PUBLIC "-//W3C//DTD SVG 1.1//EN" "http://www.w3.org/Graphics/SVG/1.1/DTD/svg11.dtd">
<svg width="100%" height="100%" viewBox="0 0 673 387" version="1.1" xmlns="http://www.w3.org/2000/svg" xmlns:xlink="http://www.w3.org/1999/xlink" xml:space="preserve" xmlns:serif="http://www.serif.com/" style="fill-rule:evenodd;clip-rule:evenodd;stroke-miterlimit:10;">
    <g transform="matrix(1,0,0,1,-89.683,-321.863)">
        <g transform="matrix(-0.933893,0.357552,0.357552,0.933893,294.702,331.226)">
            <path d="M-19.481,57.795L-14.783,57.795L-14.786,6.607C-13.619,2.681 -12.453,-1.245 -11.286,-5.171C-14.018,15.818 -16.749,36.807 -19.481,57.795" style="fill-rule:nonzero;"/>
        </g>
        <g transform="matrix(0.974767,0.223226,0.223226,-0.974767,500.844,377.648)">
            <path d="M6.761,-1.917L12.441,-1.917L12.443,49.271C13.854,53.196 15.265,57.122 16.676,61.048C13.371,40.06 10.066,19.071 6.761,-1.917" style="fill-rule:nonzero;"/>
        </g>
        <g transform="matrix(1,0,0,1,326.947,451.954)">
            <path d="M0,30.873C8.525,30.873 15.436,23.962 15.436,15.437C15.436,6.912 8.525,0 0,0C-8.525,0 -15.436,6.912 -15.436,15.437C-15.436,23.962 -8.525,30.873 0,30.873" style="fill-rule:nonzero;"/>
        </g>
        <g transform="matrix(1,0,0,1,333.913,371.917)">
            <path d="M0,43.05C-8.525,43.05 -15.436,36.139 -15.436,27.614L-15.436,15.436C-15.436,6.911 -8.525,0 0,0C8.525,0 15.436,6.911 15.436,15.436L15.436,27.614C15.436,36.139 8.525,43.05 0,43.05" style="fill:rgb(249,192,33);fill-rule:nonzero;"/>
        </g>
        <g transform="matrix(1,0,0,1,333.913,371.917)">
            <path d="M0,43.05C-8.525,43.05 -15.436,36.139 -15.436,27.614L-15.436,15.436C-15.436,6.911 -8.525,0 0,0C8.525,0 15.436,6.911 15.436,15.436L15.436,27.614C15.436,36.139 8.525,43.05 0,43.05Z" style="fill:none;fill-rule:nonzero;stroke:black;stroke-width:3px;"/>
        </g>
        <g transform="matrix(1,0,0,1,506.396,371.917)">
            <path d="M0,43.05C-8.525,43.05 -15.436,36.139 -15.436,27.614L-15.436,15.436C-15.436,6.911 -8.525,0 0,0C8.525,0 15.436,6.911 15.436,15.436L15.436,27.614C15.436,36.139 8.525,43.05 0,43.05" style="fill:rgb(249,192,33);fill-rule:nonzero;"/>
        </g>
        <g transform="matrix(1,0,0,1,506.396,371.917)">
            <path d="M0,43.05C-8.525,43.05 -15.436,36.139 -15.436,27.614L-15.436,15.436C-15.436,6.911 -8.525,0 0,0C8.525,0 15.436,6.911 15.436,15.436L15.436,27.614C15.436,36.139 8.525,43.05 0,43.05Z" style="fill:none;fill-rule:nonzero;stroke:black;stroke-width:3px;"/>
        </g>
        <g transform="matrix(1,0,0,1,494.315,343.61)">
            <path d="M0,99.664L-148.322,99.664C-154.994,99.664 -160.403,94.255 -160.403,87.583L-160.403,12.08C-160.403,5.408 -154.994,0 -148.322,0L0,0C6.672,0 12.081,5.408 12.081,12.08L12.081,87.583C12.081,94.255 6.672,99.664 0,99.664Z" style="fill:white;fill-rule:nonzero;stroke:black;stroke-width:3px;"/>
        </g>
        <g transform="matrix(0,-1,-1,0,444.588,395.623)">
            <path d="M-4.027,-4.027C-11.44,-4.027 -17.45,-2.224 -17.45,-0C-17.45,2.224 -11.44,4.027 -4.027,4.027C3.386,4.027 9.396,2.224 9.396,-0C9.396,-2.224 3.386,-4.027 -4.027,-4.027" style="fill:rgb(139,201,255);fill-rule:nonzero;"/>
        </g>
        <g transform="matrix(0,-1,-1,0,444.588,395.623)">
            <ellipse cx="-4.027" cy="0" rx="13.423" ry="4.027" style="fill:none;stroke:rgb(255,206,115);stroke-width:1px;"/>
        </g>
        <g transform="matrix(0,-1,-1,0,394.19,395.623)">
            <path d="M-4.027,-4.027C-11.44,-4.027 -17.45,-2.224 -17.45,-0C-17.45,2.224 -11.44,4.027 -4.027,4.027C3.386,4.027 9.396,2.224 9.396,-0C9.396,-2.224 3.386,-4.027 -4.027,-4.027" style="fill:rgb(48,141,242);fill-rule:nonzero;"/>
        </g>
        <g transform="matrix(0,-1,-1,0,394.19,395.623)">
            <ellipse cx="-4.027" cy="0" rx="13.423" ry="4.027" style="fill:none;stroke:rgb(231,222,0);stroke-width:1px;"/>
        </g>
        <g transform="matrix(1,0,0,1,407.11,426.882)">
            <path d="M0,-3.458C-0.42,-3.216 2.655,-1.21 7.731,-0.392C13.711,0.571 18.992,-0.674 20.052,-0.94C24.058,-1.941 26.45,-3.606 26.091,-3.786C25.609,-4.029 21.015,-1.16 14.012,-0.94C6.355,-0.699 0.548,-3.774 0,-3.458" style="fill-rule:nonzero;"/>
        </g>
        <g transform="matrix(1,0,0,1,513.785,452.245)">
            <path d="M0,30.873C-8.525,30.873 -15.436,23.962 -15.436,15.437C-15.436,6.912 -8.525,0 0,0C8.525,0 15.436,6.912 15.436,15.437C15.436,23.962 8.525,30.873 0,30.873" style="fill-rule:nonzero;"/>
        </g>
        <g transform="matrix(1,0,0,1,424.391,569.868)">
            <path d="M0,40.52L-8.473,40.52C-13.639,40.52 -17.827,36.332 -17.827,31.166L-17.827,9.354C-17.827,4.188 -13.639,0 -8.473,0L0,0C5.166,0 9.354,4.188 9.354,9.354L9.354,31.166C9.354,36.332 5.166,40.52 0,40.52Z" style="fill-rule:nonzero;stroke:black;stroke-width:3px;"/>
        </g>
        <g transform="matrix(0.0116948,-0.999932,-0.999932,-0.0116948,427.499,594.187)">
            <path d="M-25.812,-12.373C-24.72,-13.205 -11.229,-4.422 -11.703,7.726C-12.149,19.165 -24.709,26.819 -25.812,25.935C-26.77,25.167 -18.647,18.305 -18.405,7.374C-18.153,-4.089 -26.753,-11.657 -25.812,-12.373" style="fill-rule:nonzero;"/>
        </g>
        <g transform="matrix(0.0116948,-0.999932,-0.999932,-0.0116948,427.499,594.187)">
            <path d="M-25.812,-12.373C-24.72,-13.205 -11.229,-4.422 -11.703,7.726C-12.149,19.165 -24.709,26.819 -25.812,25.935C-26.77,25.167 -18.647,18.305 -18.405,7.374C-18.153,-4.089 -26.753,-11.657 -25.812,-12.373Z" style="fill:none;fill-rule:nonzero;stroke:black;stroke-width:3px;"/>
        </g>
        <g transform="matrix(1,0,0,1,420.154,616.456)">
            <path d="M0,31.795C-6.51,31.795 -11.787,26.518 -11.787,20.008L-11.787,11.787C-11.787,5.277 -6.51,0 0,0C6.51,0 11.787,5.277 11.787,11.787L11.787,20.008C11.787,26.518 6.51,31.795 0,31.795" style="fill:rgb(100,183,244);fill-rule:nonzero;"/>
        </g>
        <g transform="matrix(1,0,0,1,420.154,616.456)">
            <path d="M0,31.795C-6.51,31.795 -11.787,26.518 -11.787,20.008L-11.787,11.787C-11.787,5.277 -6.51,0 0,0C6.51,0 11.787,5.277 11.787,11.787L11.787,20.008C11.787,26.518 6.51,31.795 0,31.795Z" style="fill:none;fill-rule:nonzero;stroke:black;stroke-width:3px;"/>
        </g>
        <g transform="matrix(1,0,0,1,508.074,453.655)">
            <path d="M0,134.06L-175.839,134.06C-182.511,134.06 -187.919,128.651 -187.919,121.979L-187.919,12.08C-187.919,5.408 -182.511,0 -175.839,0L0,0C6.672,0 12.081,5.408 12.081,12.08L12.081,121.979C12.081,128.651 6.672,134.06 0,134.06Z" style="fill:white;fill-rule:nonzero;stroke:black;stroke-width:3px;"/>
        </g>
        <g transform="matrix(1,0,0,1,468.455,480.03)">
            <path d="M0,81.309L-96.087,81.309C-106.702,81.309 -115.307,72.704 -115.307,62.09L-115.307,19.219C-115.307,8.605 -106.702,0 -96.087,0L0,0C10.614,0 19.219,8.605 19.219,19.219L19.219,62.09C19.219,72.704 10.614,81.309 0,81.309Z" style="fill:rgb(55,75,160);fill-rule:nonzero;stroke:rgb(105,172,247);stroke-width:9px;"/>
        </g>
        <g transform="matrix(1,0,0,1,370.086,500.977)">
            <path d="M0,0L15.763,0" style="fill:none;fill-rule:nonzero;stroke:rgb(255,207,92);stroke-width:4px;"/>
        </g>
        <g transform="matrix(1,0,0,1,393.145,501.073)">
            <path d="M0,0L29.48,0" style="fill:none;fill-rule:nonzero;stroke:rgb(255,161,139);stroke-width:4px;"/>
        </g>
        <g transform="matrix(1,0,0,1,369.852,509.235)">
            <path d="M0,0L63.893,0" style="fill:none;fill-rule:nonzero;stroke:rgb(209,115,255);stroke-width:4px;"/>
        </g>
        <g transform="matrix(1,0,0,1,400.252,516.322)">
            <path d="M0,0L63.893,0" style="fill:none;fill-rule:nonzero;stroke:rgb(142,255,139);stroke-width:4px;"/>
        </g>
        <g transform="matrix(1,0,0,1,389.645,523.235)">
            <path d="M0,0L63.893,0" style="fill:none;fill-rule:nonzero;stroke:rgb(233,115,255);stroke-width:4px;"/>
        </g>
        <g transform="matrix(1,0,0,1,369.645,530.235)">
            <path d="M0,0L52.979,0" style="fill:none;fill-rule:nonzero;stroke:rgb(226,255,69);stroke-width:4px;"/>
        </g>
        <g transform="matrix(1,0,0,1,396.102,537.235)">
            <path d="M0,0L52.979,0" style="fill:none;fill-rule:nonzero;stroke:rgb(115,0,97);stroke-width:4px;"/>
        </g>
        <g transform="matrix(1,0,0,1,370.102,545.235)">
            <path d="M0,0L15.748,0" style="fill:none;fill-rule:nonzero;stroke:rgb(0,208,29);stroke-width:4px;"/>
        </g>
        <g transform="matrix(1,0,0,1,389.073,545.235)">
            <path d="M0,0L22.132,0" style="fill:none;fill-rule:nonzero;stroke:rgb(0,0,185);stroke-width:4px;"/>
        </g>
        <g transform="matrix(1,0,0,1,370.102,516.235)">
            <path d="M0,0L26.91,0" style="fill:none;fill-rule:nonzero;stroke:rgb(0,0,185);stroke-width:4px;"/>
        </g>
        <g transform="matrix(1,0,0,1,424.491,530.235)">
            <path d="M0,0L26.91,0" style="fill:none;fill-rule:nonzero;stroke:rgb(0,0,185);stroke-width:4px;"/>
        </g>
        <g transform="matrix(1,0,0,1,369.491,537.235)">
            <path d="M0,0L23.653,0" style="fill:none;fill-rule:nonzero;stroke:rgb(255,93,0);stroke-width:4px;"/>
        </g>
        <g transform="matrix(1,0,0,1,450.249,537.235)">
            <path d="M0,0L23.653,0" style="fill:none;fill-rule:nonzero;stroke:rgb(139,255,201);stroke-width:4px;"/>
        </g>
        <g transform="matrix(1,0,0,1,370.249,523.235)">
            <path d="M0,0L16.827,0" style="fill:none;fill-rule:nonzero;stroke:rgb(139,255,201);stroke-width:4px;"/>
        </g>
        <g transform="matrix(1,0,0,1,435.166,509.235)">
            <path d="M0,0L35.007,0" style="fill:none;fill-rule:nonzero;stroke:rgb(253,255,139);stroke-width:4px;"/>
        </g>
        <g transform="matrix(1,0,0,1,454.605,523.235)">
            <path d="M0,0L19.298,0" style="fill:none;fill-rule:nonzero;stroke:rgb(253,255,139);stroke-width:4px;"/>
        </g>
        <g transform="matrix(1,0,0,1,453.538,530.235)">
            <path d="M0,0L19.298,0" style="fill:none;fill-rule:nonzero;stroke:rgb(185,0,151);stroke-width:4px;"/>
        </g>
        <g transform="matrix(1,0,0,1,521.269,532.547)">
            <path d="M0,-63.441C2.306,-65.089 14.462,-55.758 19.871,-42.022C21.482,-37.929 27.228,-23.337 19.871,-13.118C9.239,1.648 -20.523,-4.147 -21.233,-8.174C-21.636,-10.456 -12.995,-13.778 -11.355,-14.409C1.332,-19.287 8.191,-14.792 11.871,-18.28C20.274,-26.243 -3.905,-60.65 0,-63.441" style="fill-rule:nonzero;"/>
        </g>
        <g transform="matrix(1,0,0,1,521.269,532.547)">
            <path d="M0,-63.441C2.306,-65.089 14.462,-55.758 19.871,-42.022C21.482,-37.929 27.228,-23.337 19.871,-13.118C9.239,1.648 -20.523,-4.147 -21.233,-8.174C-21.636,-10.456 -12.995,-13.778 -11.355,-14.409C1.332,-19.287 8.191,-14.792 11.871,-18.28C20.274,-26.243 -3.905,-60.65 0,-63.441Z" style="fill:none;fill-rule:nonzero;stroke:black;stroke-width:3px;"/>
        </g>
        <g transform="matrix(1,0,0,1,485.976,518.873)">
            <path d="M0,14.785C0.53,15.569 6.354,12.233 8.97,10.62C13.424,7.873 14.043,6.754 14.059,5.773C14.086,4.208 12.582,2.872 11.153,1.604C9.725,0.336 8.313,-0.385 7.386,-0.784C7.386,-0.784 7.322,2.285 6.39,5.458C5.138,9.718 -0.547,13.976 0,14.785" style="fill-rule:nonzero;"/>
        </g>
        <g>
            <path d="M450.014,487.692L450.014,492.065L443.684,495.378L450.014,498.691L450.014,503.04L438.806,497.197L438.806,493.523L450.014,487.692Z" style="fill:white;fill-rule:nonzero;"/>
            <path d="M458.662,487.259L453.948,506.823L451.649,506.823L456.349,487.259L458.662,487.259Z" style="fill:white;fill-rule:nonzero;"/>
            <path d="M460.725,503.04L460.725,498.667L467.056,495.354L460.738,492.041L460.738,487.692L471.934,493.535L471.934,497.21L460.725,503.04Z" style="fill:white;fill-rule:nonzero;"/>
            <path d="M166.305,521.941L166.305,556.508L154.785,556.508L154.785,587.715L114.808,587.715L114.808,504.37C114.808,488.238 119.321,475.708 128.347,466.778C137.373,457.848 150.058,453.383 166.404,453.383C182.158,453.383 193.81,457.432 201.359,465.53C208.908,473.627 212.682,486.126 212.682,503.025L212.682,587.715L172.705,587.715L172.705,505.618C172.705,500.497 172.082,496.944 170.835,494.96C169.587,492.975 167.355,491.983 164.139,491.983C157.903,491.983 154.785,496.528 154.785,505.618L154.785,521.941L166.305,521.941Z" style="fill:rgb(249,237,50);fill-rule:nonzero;"/>
            <rect x="236.341" y="456.648" width="39.977" height="131.067" style="fill:rgb(249,237,50);fill-rule:nonzero;"/>
        </g>
        <g>
            <path d="M612.028,515.121L612.028,549.688L600.508,549.688L600.508,580.894L560.531,580.894L560.531,497.549C560.531,481.418 565.044,468.887 574.07,459.958C583.096,451.028 595.782,446.563 612.127,446.563C627.881,446.563 639.533,450.612 647.082,458.709C654.631,466.807 658.405,479.306 658.405,496.205L658.405,580.894L618.429,580.894L618.429,498.798C618.429,493.676 617.805,490.124 616.558,488.139C615.31,486.155 613.079,485.163 609.862,485.163C603.626,485.163 600.508,489.708 600.508,498.798L600.508,515.121L612.028,515.121Z" style="fill:rgb(251,176,64);fill-rule:nonzero;"/>
            <path d="M679.912,449.828L719.889,449.828L719.889,527.699C719.889,533.781 720.89,537.829 722.892,539.846C724.894,541.862 728.849,542.87 734.757,542.87L736.825,542.87L736.825,580.894L726.19,580.894C711.617,580.894 700.261,576.749 692.121,568.46C683.982,560.17 679.912,548.664 679.912,533.941L679.912,449.828Z" style="fill:rgb(251,176,64);fill-rule:nonzero;"/>
        </g>
        <g transform="matrix(1,0,0,1,485.976,518.873)">
            <path d="M0,14.785C0.53,15.569 6.354,12.233 8.97,10.62C13.424,7.873 14.043,6.754 14.059,5.773C14.086,4.208 12.582,2.872 11.153,1.604C9.725,0.336 8.313,-0.385 7.386,-0.784C7.386,-0.784 7.322,2.285 6.39,5.458C5.138,9.718 -0.547,13.976 0,14.785Z" style="fill:none;fill-rule:nonzero;stroke:black;stroke-width:3px;"/>
        </g>
        <g transform="matrix(1,0,0,1,319.463,532.256)">
            <path d="M0,-63.441C-2.306,-65.089 -14.462,-55.758 -19.871,-42.022C-21.482,-37.929 -27.228,-23.337 -19.871,-13.118C-9.239,1.648 20.523,-4.147 21.233,-8.174C21.636,-10.456 12.995,-13.778 11.355,-14.409C-1.332,-19.287 -8.191,-14.792 -11.871,-18.28C-20.274,-26.243 3.905,-60.65 0,-63.441" style="fill-rule:nonzero;"/>
        </g>
        <g transform="matrix(1,0,0,1,319.463,532.256)">
            <path d="M0,-63.441C-2.306,-65.089 -14.462,-55.758 -19.871,-42.022C-21.482,-37.929 -27.228,-23.337 -19.871,-13.118C-9.239,1.648 20.523,-4.147 21.233,-8.174C21.636,-10.456 12.995,-13.778 11.355,-14.409C-1.332,-19.287 -8.191,-14.792 -11.871,-18.28C-20.274,-26.243 3.905,-60.65 0,-63.441Z" style="fill:none;fill-rule:nonzero;stroke:black;stroke-width:3px;"/>
        </g>
        <g transform="matrix(1,0,0,1,354.756,518.583)">
            <path d="M0,14.785C-0.53,15.569 -6.354,12.233 -8.97,10.62C-13.424,7.873 -14.043,6.754 -14.059,5.773C-14.086,4.208 -12.582,2.872 -11.153,1.604C-9.725,0.336 -8.313,-0.385 -7.386,-0.784C-7.386,-0.784 -7.322,2.285 -6.39,5.458C-5.138,9.718 0.547,13.976 0,14.785" style="fill-rule:nonzero;"/>
        </g>
        <g transform="matrix(1,0,0,1,354.756,518.583)">
            <path d="M0,14.785C-0.53,15.569 -6.354,12.233 -8.97,10.62C-13.424,7.873 -14.043,6.754 -14.059,5.773C-14.086,4.208 -12.582,2.872 -11.153,1.604C-9.725,0.336 -8.313,-0.385 -7.386,-0.784C-7.386,-0.784 -7.322,2.285 -6.39,5.458C-5.138,9.718 0.547,13.976 0,14.785Z" style="fill:none;fill-rule:nonzero;stroke:black;stroke-width:3px;"/>
        </g>
        <g transform="matrix(0,-1,-1,0,503.862,569.868)">
            <path d="M-5.513,-5.513C-8.558,-5.513 -11.026,-3.045 -11.026,0C-11.026,3.044 -8.558,5.513 -5.513,5.513C-2.468,5.513 0,3.044 0,0C0,-3.045 -2.468,-5.513 -5.513,-5.513" style="fill:rgb(61,105,249);fill-rule:nonzero;"/>
        </g>
        <g transform="matrix(0,-1,-1,0,490.646,569.868)">
            <path d="M-5.513,-5.513C-8.558,-5.513 -11.026,-3.045 -11.026,0C-11.026,3.044 -8.558,5.513 -5.513,5.513C-2.468,5.513 0,3.044 0,0C0,-3.045 -2.468,-5.513 -5.513,-5.513" style="fill:rgb(69,255,46);fill-rule:nonzero;"/>
        </g>
        <g transform="matrix(0,-1,-1,0,476.916,569.918)">
            <path d="M-5.513,-5.513C-8.558,-5.513 -11.026,-3.045 -11.026,0C-11.026,3.044 -8.558,5.513 -5.513,5.513C-2.468,5.513 0,3.044 0,0C0,-3.045 -2.468,-5.513 -5.513,-5.513" style="fill:rgb(252,50,142);fill-rule:nonzero;"/>
        </g>
        <g transform="matrix(1,0,0,1,332.841,575.381)">
            <path d="M0,0L14.904,0" style="fill:none;fill-rule:nonzero;stroke:black;stroke-width:8px;"/>
        </g>
        <g transform="matrix(1,0,0,1,154.785,519.156)">
            <path d="M0,2.785L0,-13.538C0,-22.627 3.117,-27.173 9.354,-27.173C12.57,-27.173 14.802,-26.18 16.05,-24.196C17.296,-22.212 17.921,-18.659 17.921,-13.538L17.921,68.558L57.897,68.558L57.897,-16.131C57.897,-33.03 54.122,-45.528 46.574,-53.627C39.024,-61.724 27.374,-65.773 11.619,-65.773C-4.726,-65.773 -17.413,-61.308 -26.438,-52.378C-35.464,-43.448 -39.977,-30.918 -39.977,-14.786L-39.977,68.558L0,68.558L0,37.352L11.521,37.352L11.521,2.785L0,2.785Z" style="fill:none;fill-rule:nonzero;stroke:rgb(35,31,32);stroke-width:5px;"/>
        </g>
        <g transform="matrix(1,0,0,1,0,339.794)">
            <rect x="236.3" y="116.854" width="39.977" height="131.067" style="fill:none;stroke:rgb(35,31,32);stroke-width:5px;"/>
        </g>
        <g transform="matrix(1,0,0,1,600.508,512.336)">
            <path d="M0,2.785L0,-13.538C0,-22.627 3.117,-27.173 9.354,-27.173C12.57,-27.173 14.802,-26.18 16.05,-24.196C17.296,-22.212 17.921,-18.659 17.921,-13.538L17.921,68.558L57.897,68.558L57.897,-16.131C57.897,-33.03 54.122,-45.528 46.574,-53.627C39.024,-61.724 27.374,-65.773 11.619,-65.773C-4.726,-65.773 -17.413,-61.308 -26.438,-52.378C-35.464,-43.448 -39.977,-30.918 -39.977,-14.786L-39.977,68.558L0,68.558L0,37.352L11.521,37.352L11.521,2.785L0,2.785Z" style="fill:none;fill-rule:nonzero;stroke:rgb(35,31,32);stroke-width:5px;"/>
        </g>
        <g transform="matrix(1,0,0,1,679.871,496.78)">
            <path d="M0,37.161C0,51.885 4.069,63.39 12.209,71.68C20.348,79.971 31.706,84.114 46.278,84.114L56.913,84.114L56.913,46.091L54.845,46.091C48.937,46.091 44.981,45.082 42.98,43.065C40.977,41.05 39.977,37.002 39.977,30.919L39.977,-46.953L0,-46.953L0,37.161Z" style="fill:none;fill-rule:nonzero;stroke:rgb(35,31,32);stroke-width:5px;"/>
        </g>
        <g transform="matrix(-0.999985,0.00551008,0.00551008,0.999985,349.53,575.46)">
            <path d="M-5.263,-0.014L0,-0.014" style="fill:none;fill-rule:nonzero;stroke:black;stroke-width:8px;"/>
        </g>
        <g transform="matrix(1,0,0,1,0,110.577)">
            <path d="M186.864,555.65L197.015,586.242C197.015,587.007 196.693,587.39 196.05,587.39C195.897,587.39 195.698,587.329 195.453,587.206L195.132,586.885L192.513,578.984L179.468,578.984L176.758,586.931C176.513,587.237 176.268,587.39 176.023,587.39C175.595,587.39 175.296,587.252 175.128,586.977C174.959,586.701 174.875,586.487 174.875,586.334C174.875,586.211 174.89,586.135 174.921,586.104L184.98,555.926C185.011,555.528 185.271,555.268 185.761,555.145C186.343,555.145 186.71,555.314 186.864,555.65ZM180.157,576.963L191.778,576.963L185.991,559.417L180.157,576.963Z" style="fill-rule:nonzero;"/>
            <path d="M206.982,555.513L207.123,555.835L207.123,586.654C206.966,587.145 206.637,587.39 206.136,587.39C205.54,587.39 205.195,587.129 205.102,586.608L205.102,555.881C205.195,555.482 205.446,555.237 205.854,555.145C206.355,555.145 206.731,555.268 206.982,555.513Z" style="fill-rule:nonzero;"/>
            <path d="M229.862,575.356C230.352,575.447 230.597,575.769 230.597,576.32C230.597,576.473 230.52,576.672 230.367,576.917C230.214,577.162 230.03,577.3 229.816,577.331L215.898,577.331C215.47,577.208 215.225,576.948 215.163,576.55C215.163,575.999 215.301,575.631 215.577,575.447C215.669,575.417 215.791,575.371 215.944,575.31L229.862,575.356Z" style="fill-rule:nonzero;"/>
            <path d="M250.58,555.65L260.732,586.242C260.732,587.007 260.41,587.39 259.767,587.39C259.614,587.39 259.415,587.329 259.17,587.206L258.848,586.885L256.23,578.984L243.185,578.984L240.475,586.931C240.23,587.237 239.985,587.39 239.74,587.39C239.311,587.39 239.013,587.252 238.844,586.977C238.676,586.701 238.592,586.487 238.592,586.334C238.592,586.211 238.607,586.135 238.638,586.104L248.697,555.926C248.728,555.528 248.988,555.268 249.478,555.145C250.06,555.145 250.427,555.314 250.58,555.65ZM243.874,576.963L255.495,576.963L249.708,559.417L243.874,576.963Z" style="fill-rule:nonzero;"/>
            <path d="M282.047,566.971C282.353,567.158 282.537,567.437 282.598,567.809C282.598,568.212 282.43,568.553 282.093,568.832C281.909,568.894 281.741,568.925 281.588,568.925C281.435,568.925 281.327,568.909 281.266,568.878C278.449,567.715 275.846,567.164 273.458,567.225C272.263,567.256 271.421,567.931 270.931,569.251C270.809,569.589 270.748,569.926 270.748,570.264C270.748,571.124 271.069,571.875 271.712,572.52L272.309,572.934L281.817,577.584C283.502,578.658 284.344,580.162 284.344,582.096L284.344,582.74C284.221,583.845 283.768,584.812 282.984,585.641C282.201,586.469 281.257,586.991 280.152,587.206C279.507,587.329 278.739,587.39 277.848,587.39C274.776,587.39 271.951,586.732 269.371,585.415C269.217,585.354 269.079,585.185 268.956,584.91C268.956,584.297 269.125,583.884 269.461,583.669C269.645,583.608 269.798,583.578 269.921,583.578C270.166,583.578 270.495,583.692 270.908,583.922C271.322,584.152 271.62,584.282 271.804,584.313C273.611,585.017 275.54,585.369 277.592,585.369C278.112,585.369 278.847,585.308 279.796,585.185C280.317,585.123 280.815,584.863 281.289,584.402C281.764,583.942 282.062,583.451 282.185,582.929C282.277,582.653 282.323,582.377 282.323,582.101C282.323,581.118 281.909,580.259 281.082,579.522L280.577,579.2L271.161,574.642C269.538,573.568 268.726,572.125 268.726,570.314C268.726,569.915 268.772,569.501 268.864,569.071C269.048,568.212 269.492,567.429 270.196,566.723C270.901,566.017 271.666,565.557 272.493,565.342C273.075,565.25 273.657,565.204 274.238,565.204C275.31,565.204 276.765,565.421 278.602,565.855C279.49,566.073 280.638,566.445 282.047,566.971Z" style="fill-rule:nonzero;"/>
            <path d="M305.613,566.971C305.919,567.158 306.103,567.437 306.164,567.809C306.164,568.212 305.996,568.553 305.659,568.832C305.475,568.894 305.307,568.925 305.154,568.925C305.001,568.925 304.894,568.909 304.832,568.878C302.015,567.715 299.412,567.164 297.024,567.225C295.83,567.256 294.987,567.931 294.497,569.251C294.375,569.589 294.314,569.926 294.314,570.264C294.314,571.124 294.635,571.875 295.278,572.52L295.875,572.934L305.384,577.584C307.068,578.658 307.91,580.162 307.91,582.096L307.91,582.74C307.787,583.845 307.334,584.812 306.551,585.641C305.767,586.469 304.823,586.991 303.718,587.206C303.073,587.329 302.305,587.39 301.414,587.39C298.343,587.39 295.517,586.732 292.937,585.415C292.784,585.354 292.645,585.185 292.522,584.91C292.522,584.297 292.691,583.884 293.028,583.669C293.211,583.608 293.364,583.578 293.487,583.578C293.732,583.578 294.061,583.692 294.475,583.922C294.888,584.152 295.186,584.282 295.37,584.313C297.177,585.017 299.106,585.369 301.158,585.369C301.678,585.369 302.413,585.308 303.363,585.185C303.883,585.123 304.381,584.863 304.855,584.402C305.33,583.942 305.629,583.451 305.751,582.929C305.843,582.653 305.889,582.377 305.889,582.101C305.889,581.118 305.475,580.259 304.649,579.522L304.143,579.2L294.727,574.642C293.104,573.568 292.293,572.125 292.293,570.314C292.293,569.915 292.339,569.501 292.43,569.071C292.614,568.212 293.058,567.429 293.763,566.723C294.467,566.017 295.232,565.557 296.059,565.342C296.641,565.25 297.223,565.204 297.805,565.204C298.876,565.204 300.331,565.421 302.168,565.855C303.056,566.073 304.205,566.445 305.613,566.971Z" style="fill-rule:nonzero;"/>
            <path d="M317.788,555.517L317.926,555.843L317.926,557.191C317.926,557.44 317.895,557.812 317.834,558.307C317.62,558.68 317.329,558.866 316.961,558.866C316.502,558.866 316.18,558.664 315.997,558.261C315.935,557.982 315.905,557.548 315.905,556.959L315.905,555.889C315.997,555.486 316.257,555.238 316.686,555.145C317.176,555.145 317.543,555.269 317.788,555.517ZM317.832,565.802L317.926,566.123L317.926,586.655C317.773,587.145 317.451,587.39 316.961,587.39C316.349,587.39 315.997,587.13 315.905,586.609L315.905,565.893C316.093,565.434 316.406,565.204 316.845,565.204C317.378,565.204 317.707,565.403 317.832,565.802Z" style="fill-rule:nonzero;"/>
            <path d="M339.241,566.971C339.548,567.158 339.731,567.437 339.793,567.809C339.793,568.212 339.624,568.553 339.287,568.832C339.104,568.894 338.935,568.925 338.782,568.925C338.629,568.925 338.522,568.909 338.461,568.878C335.643,567.715 333.04,567.164 330.652,567.225C329.458,567.256 328.616,567.931 328.126,569.251C328.003,569.589 327.942,569.926 327.942,570.264C327.942,571.124 328.263,571.875 328.906,572.52L329.504,572.934L339.012,577.584C340.696,578.658 341.538,580.162 341.538,582.096L341.538,582.74C341.415,583.845 340.962,584.812 340.179,585.641C339.395,586.469 338.451,586.991 337.346,587.206C336.701,587.329 335.933,587.39 335.042,587.39C331.971,587.39 329.145,586.732 326.565,585.415C326.412,585.354 326.273,585.185 326.15,584.91C326.15,584.297 326.319,583.884 326.656,583.669C326.839,583.608 326.993,583.578 327.115,583.578C327.36,583.578 327.689,583.692 328.103,583.922C328.516,584.152 328.815,584.282 328.998,584.313C330.805,585.017 332.734,585.369 334.786,585.369C335.306,585.369 336.041,585.308 336.991,585.185C337.511,585.123 338.009,584.863 338.483,584.402C338.958,583.942 339.257,583.451 339.379,582.929C339.471,582.653 339.517,582.377 339.517,582.101C339.517,581.118 339.104,580.259 338.277,579.522L337.772,579.2L328.355,574.642C326.732,573.568 325.921,572.125 325.921,570.314C325.921,569.915 325.967,569.501 326.059,569.071C326.242,568.212 326.686,567.429 327.391,566.723C328.095,566.017 328.861,565.557 329.687,565.342C330.269,565.25 330.851,565.204 331.433,565.204C332.505,565.204 333.959,565.421 335.796,565.855C336.684,566.073 337.833,566.445 339.241,566.971Z" style="fill-rule:nonzero;"/>
            <path d="M354.632,555.421C354.846,555.696 354.953,555.987 354.953,556.293L354.953,565.204L360.878,565.204C361.307,565.267 361.552,565.533 361.613,566.003C361.613,566.536 361.46,566.897 361.154,567.085L360.924,567.225L354.953,567.225L354.953,586.609C354.89,586.977 354.64,587.222 354.201,587.344C353.637,587.344 353.261,587.222 353.073,586.977L352.932,586.655L352.932,567.225L350.314,567.225C349.885,567.132 349.625,566.865 349.533,566.427C349.533,565.894 349.701,565.533 350.038,565.345L350.314,565.204L352.932,565.204L352.932,555.88C352.963,555.513 353.223,555.268 353.713,555.145C354.05,555.145 354.356,555.237 354.632,555.421Z" style="fill-rule:nonzero;"/>
            <path d="M384.536,569.999C384.935,570.799 385.134,571.952 385.134,573.458C385.134,573.765 385.118,574.211 385.088,574.795L385.088,576.593C384.996,576.931 384.751,577.162 384.353,577.285L371.675,577.285L371.675,581.74C371.89,583.271 372.686,584.358 374.064,585.002C374.768,585.216 375.335,585.323 375.763,585.323L384.353,585.323C384.751,585.417 384.996,585.668 385.088,586.075L385.088,586.216C385.118,586.279 385.134,586.326 385.134,586.357C385.134,586.702 384.996,586.984 384.72,587.203L384.399,587.344L374.891,587.344C373.788,587.221 372.762,586.753 371.813,585.94C370.864,585.127 370.236,584.183 369.93,583.11C369.746,582.465 369.654,581.621 369.654,580.578L369.654,572.339C369.899,569.454 371.277,567.352 373.788,566.033C374.829,565.48 376.024,565.204 377.371,565.204C379.361,565.204 381.046,565.819 382.424,567.049C383.434,567.94 384.138,568.924 384.536,569.999ZM377.968,567.225L377.417,567.225C375.09,567.225 373.359,568.319 372.226,570.505C371.859,571.214 371.675,572.292 371.675,573.739L371.675,575.264L383.067,575.264L383.067,573.324C383.067,572.646 383.021,572.061 382.929,571.568C382.684,570.429 382.087,569.451 381.137,568.634C380.188,567.818 379.132,567.348 377.968,567.225Z" style="fill-rule:nonzero;"/>
            <path d="M408.421,555.513L408.562,555.835L408.562,586.654C408.531,587.022 408.271,587.268 407.781,587.39L399.329,587.344C397.921,587.344 396.604,586.761 395.379,585.595C394.246,584.521 393.542,583.263 393.266,581.821C393.174,581.269 393.129,580.624 393.129,579.887L393.129,571.556C393.129,570.298 393.565,569.102 394.438,567.966C395.31,566.831 396.374,566.048 397.63,565.619C398.426,565.342 399.467,565.204 400.753,565.204L406.541,565.204L406.541,555.88C406.666,555.482 406.917,555.237 407.293,555.145C407.857,555.145 408.233,555.268 408.421,555.513ZM406.541,585.323L406.541,567.225L399.716,567.225C399.008,567.225 398.286,567.44 397.547,567.87C396.164,568.699 395.365,569.927 395.15,571.554L395.15,580.672C395.272,581.532 395.44,582.176 395.655,582.606C396.451,584.202 397.706,585.108 399.421,585.323L406.541,585.323Z" style="fill-rule:nonzero;"/>
            <path d="M431.901,555.513L432.039,555.835L432.039,585.323L444.67,585.323C445.038,585.417 445.298,585.668 445.451,586.075L445.451,586.216C445.482,586.279 445.497,586.326 445.497,586.357C445.497,586.702 445.359,586.984 445.084,587.203L444.762,587.344L430.799,587.344C430.37,587.252 430.11,587.007 430.018,586.608L430.018,555.881C430.11,555.482 430.37,555.237 430.799,555.145C431.289,555.145 431.656,555.268 431.901,555.513Z" style="fill-rule:nonzero;"/>
            <path d="M468.374,569.999C468.773,570.799 468.972,571.952 468.972,573.458C468.972,573.765 468.956,574.211 468.926,574.795L468.926,576.593C468.834,576.931 468.589,577.162 468.191,577.285L455.513,577.285L455.513,581.74C455.728,583.271 456.524,584.358 457.902,585.002C458.606,585.216 459.173,585.323 459.601,585.323L468.191,585.323C468.589,585.417 468.834,585.668 468.926,586.075L468.926,586.216C468.956,586.279 468.972,586.326 468.972,586.357C468.972,586.702 468.834,586.984 468.558,587.203L468.237,587.344L458.729,587.344C457.626,587.221 456.6,586.753 455.651,585.94C454.702,585.127 454.074,584.183 453.768,583.11C453.584,582.465 453.492,581.621 453.492,580.578L453.492,572.339C453.737,569.454 455.115,567.352 457.626,566.033C458.667,565.48 459.862,565.204 461.209,565.204C463.199,565.204 464.884,565.819 466.262,567.049C467.272,567.94 467.976,568.924 468.374,569.999ZM461.806,567.225L461.255,567.225C458.928,567.225 457.197,568.319 456.064,570.505C455.697,571.214 455.513,572.292 455.513,573.739L455.513,575.264L466.905,575.264L466.905,573.324C466.905,572.646 466.859,572.061 466.767,571.568C466.522,570.429 465.925,569.451 464.975,568.634C464.026,567.818 462.97,567.348 461.806,567.225Z" style="fill-rule:nonzero;"/>
            <path d="M486.107,565.204C487.332,565.204 488.496,565.626 489.598,566.47C490.7,567.314 491.481,568.334 491.941,569.531C492.155,570.083 492.308,570.713 492.4,571.418L492.4,586.654C492.369,587.022 492.109,587.267 491.619,587.39L482.387,587.344C481.284,587.344 480.243,586.931 479.263,586.104C478.283,585.277 477.625,584.313 477.288,583.21C477.074,582.475 476.967,581.847 476.967,581.327C476.967,579.643 477.556,578.219 478.735,577.055C479.914,575.891 481.345,575.31 483.03,575.31L490.379,575.31L490.379,572.737C490.379,571.053 489.996,569.798 489.231,568.971C488.159,567.807 486.995,567.225 485.74,567.225L479.401,567.225C478.972,567.1 478.727,566.834 478.666,566.427C478.666,565.863 478.834,565.486 479.171,565.298L479.585,565.204L486.107,565.204ZM490.379,585.323L490.379,577.331L482.616,577.331C481.636,577.484 480.84,577.867 480.228,578.479C479.432,579.275 479.034,580.24 479.034,581.373C479.034,582.322 479.37,583.195 480.044,583.991C480.718,584.787 481.529,585.231 482.478,585.323L490.379,585.323Z" style="fill-rule:nonzero;"/>
            <path d="M511.829,565.25C512.26,565.312 512.506,565.557 512.567,565.985L512.567,569.752C512.567,570.334 512.238,570.625 511.58,570.625C511.392,570.625 511.196,570.555 510.993,570.415C510.789,570.275 510.64,570.097 510.546,569.88L510.546,567.225L502.508,567.225L502.508,586.655C502.32,587.145 501.991,587.39 501.521,587.39C500.925,587.39 500.581,587.13 500.487,586.609L500.487,565.893C500.671,565.434 500.963,565.204 501.363,565.204L511.829,565.25Z" style="fill-rule:nonzero;"/>
            <path d="M529.73,565.25C530.958,565.25 532.125,565.671 533.231,566.514C534.337,567.356 535.12,568.374 535.581,569.568C535.796,570.119 535.949,570.747 536.042,571.451L536.042,586.655C535.948,587.145 535.619,587.39 535.055,587.39C534.459,587.39 534.114,587.13 534.02,586.609L534.02,571.497C533.805,569.752 532.883,568.496 531.253,567.731C530.669,567.394 530.039,567.225 529.363,567.225L522.629,567.225L522.629,586.655C522.441,587.145 522.112,587.39 521.642,587.39C521.047,587.39 520.702,587.13 520.608,586.609L520.608,565.893C520.792,565.434 521.084,565.204 521.484,565.204L529.73,565.25Z" style="fill-rule:nonzero;"/>
            <path d="M545.92,555.517L546.057,555.843L546.057,557.191C546.057,557.44 546.027,557.812 545.966,558.307C545.751,558.68 545.46,558.866 545.093,558.866C544.634,558.866 544.312,558.664 544.128,558.261C544.067,557.982 544.036,557.548 544.036,556.959L544.036,555.889C544.128,555.486 544.389,555.238 544.817,555.145C545.307,555.145 545.675,555.269 545.92,555.517ZM545.963,565.802L546.057,566.123L546.057,586.655C545.904,587.145 545.583,587.39 545.093,587.39C544.48,587.39 544.128,587.13 544.036,586.609L544.036,565.893C544.224,565.434 544.538,565.204 544.977,565.204C545.509,565.204 545.838,565.403 545.963,565.802Z" style="fill-rule:nonzero;"/>
            <path d="M563.266,565.25C564.495,565.25 565.661,565.671 566.767,566.514C567.873,567.356 568.656,568.374 569.117,569.568C569.332,570.119 569.485,570.747 569.578,571.451L569.578,586.655C569.484,587.145 569.155,587.39 568.591,587.39C567.995,587.39 567.65,587.13 567.557,586.609L567.557,571.497C567.341,569.752 566.419,568.496 564.789,567.731C564.206,567.394 563.575,567.225 562.899,567.225L556.165,567.225L556.165,586.655C555.977,587.145 555.648,587.39 555.178,587.39C554.583,587.39 554.238,587.13 554.144,586.609L554.144,565.893C554.328,565.434 554.62,565.204 555.02,565.204L563.266,565.25Z" style="fill-rule:nonzero;"/>
            <path d="M592.271,565.204C592.669,565.266 592.914,565.496 593.006,565.896L593.006,591.276C593.006,592.536 592.524,593.749 591.559,594.916C590.595,596.083 589.485,596.835 588.229,597.173C587.678,597.388 586.79,597.495 585.565,597.495L580.053,597.495C579.594,597.434 579.333,597.174 579.272,596.714C579.272,596.133 579.44,595.765 579.775,595.612L580.096,595.474L586.639,595.474C587.523,595.381 588.339,595.033 589.086,594.429C589.834,593.825 590.36,593.105 590.665,592.269C590.878,591.68 590.985,590.937 590.985,590.038L590.985,587.344L583.774,587.344C582.365,587.344 581.048,586.761 579.823,585.595C578.69,584.521 577.986,583.263 577.71,581.821C577.619,581.269 577.573,580.624 577.573,579.887L577.573,571.556C577.573,570.298 578.009,569.102 578.882,567.966C579.754,566.831 580.819,566.048 582.074,565.619C582.901,565.342 583.651,565.204 584.325,565.204L592.271,565.204ZM590.985,585.323L590.985,567.225L584.16,567.225C583.453,567.225 582.73,567.44 581.992,567.87C580.608,568.699 579.809,569.927 579.594,571.554L579.594,580.672C579.716,581.532 579.885,582.176 580.099,582.606C580.895,584.202 582.151,585.108 583.865,585.323L590.985,585.323Z" style="fill-rule:nonzero;"/>
            <path d="M616.345,555.513L616.483,555.835L616.483,585.323L629.115,585.323C629.482,585.417 629.742,585.668 629.896,586.075L629.896,586.216C629.926,586.279 629.941,586.326 629.941,586.357C629.941,586.702 629.804,586.984 629.528,587.203L629.207,587.344L615.243,587.344C614.814,587.252 614.554,587.007 614.462,586.608L614.462,555.881C614.554,555.482 614.814,555.237 615.243,555.145C615.733,555.145 616.1,555.268 616.345,555.513Z" style="fill-rule:nonzero;"/>
            <path d="M647.077,565.204C648.302,565.204 649.466,565.626 650.568,566.47C651.67,567.314 652.451,568.334 652.911,569.531C653.125,570.083 653.278,570.713 653.37,571.418L653.37,586.654C653.339,587.022 653.079,587.267 652.589,587.39L643.356,587.344C642.254,587.344 641.213,586.931 640.233,586.104C639.253,585.277 638.595,584.313 638.258,583.21C638.044,582.475 637.936,581.847 637.936,581.327C637.936,579.643 638.526,578.219 639.705,577.055C640.884,575.891 642.315,575.31 644,575.31L651.349,575.31L651.349,572.737C651.349,571.053 650.966,569.798 650.2,568.971C649.129,567.807 647.965,567.225 646.71,567.225L640.371,567.225C639.942,567.1 639.697,566.834 639.636,566.427C639.636,565.863 639.804,565.486 640.141,565.298L640.555,565.204L647.077,565.204ZM651.349,585.323L651.349,577.331L643.586,577.331C642.606,577.484 641.81,577.867 641.198,578.479C640.401,579.275 640.003,580.24 640.003,581.373C640.003,582.322 640.34,583.195 641.014,583.991C641.688,584.787 642.499,585.231 643.448,585.323L651.349,585.323Z" style="fill-rule:nonzero;"/>
            <path d="M663.337,555.558L663.478,555.834L663.478,565.204L670.551,565.204C671.776,565.204 672.94,565.626 674.042,566.47C675.145,567.314 675.926,568.334 676.385,569.531C676.599,570.084 676.752,570.713 676.844,571.418L676.844,581.176C676.844,582.373 676.423,583.516 675.581,584.605C674.739,585.695 673.736,586.454 672.572,586.884C671.991,587.099 671.348,587.252 670.643,587.344L662.146,587.344C661.778,587.252 661.548,587.007 661.457,586.608L661.457,555.881C661.55,555.482 661.801,555.237 662.209,555.145C662.71,555.145 663.086,555.283 663.337,555.558ZM670.505,567.225L663.478,567.225L663.478,585.323L670.092,585.323C670.674,585.323 671.24,585.216 671.792,585.001C673.598,584.264 674.609,582.959 674.823,581.086L674.823,572.429C674.823,571.569 674.731,570.879 674.548,570.357C674.241,569.559 673.705,568.86 672.94,568.261C672.174,567.663 671.363,567.317 670.505,567.225Z" style="fill-rule:nonzero;"/>
        </g>
    </g>
</svg>
