<?xml version="1.0" encoding="UTF-8" standalone="no"?>
<!DOCTYPE svg PUBLIC "-//W3C//DTD SVG 1.1//EN" "http://www.w3.org/Graphics/SVG/1.1/DTD/svg11.dtd">
<svg width="100%" height="100%" viewBox="0 0 622 342" version="1.1" xmlns="http://www.w3.org/2000/svg" xmlns:xlink="http://www.w3.org/1999/xlink" xml:space="preserve" xmlns:serif="http://www.serif.com/" style="fill-rule:evenodd;clip-rule:evenodd;stroke-miterlimit:10;">
    <g transform="matrix(1,0,0,1,-114.798,-6.8276)">
        <g id="Layer2">
            <g transform="matrix(1,0,0,1,326.937,136.919)">
                <path d="M0,30.873C8.525,30.873 15.436,23.962 15.436,15.437C15.436,6.912 8.525,0 0,0C-8.525,0 -15.436,6.912 -15.436,15.437C-15.436,23.962 -8.525,30.873 0,30.873" style="fill-rule:nonzero;"/>
            </g>
            <g transform="matrix(1,0,0,1,333.902,56.8818)">
                <path d="M0,43.05C-8.525,43.05 -15.436,36.139 -15.436,27.614L-15.436,15.436C-15.436,6.911 -8.525,0 0,0C8.525,0 15.436,6.911 15.436,15.436L15.436,27.614C15.436,36.139 8.525,43.05 0,43.05" style="fill-rule:nonzero;"/>
            </g>
            <g transform="matrix(1,0,0,1,506.386,56.8818)">
                <path d="M0,43.05C-8.525,43.05 -15.436,36.139 -15.436,27.614L-15.436,15.436C-15.436,6.911 -8.525,0 0,0C8.525,0 15.436,6.911 15.436,15.436L15.436,27.614C15.436,36.139 8.525,43.05 0,43.05" style="fill-rule:nonzero;"/>
            </g>
            <g transform="matrix(1,0,0,1,494.305,28.5749)">
                <path d="M0,99.664L-148.322,99.664C-154.994,99.664 -160.403,94.255 -160.403,87.583L-160.403,12.08C-160.403,5.408 -154.994,0 -148.322,0L0,0C6.672,0 12.081,5.408 12.081,12.08L12.081,87.583C12.081,94.255 6.672,99.664 0,99.664Z" style="fill:white;fill-rule:nonzero;stroke:black;stroke-width:3px;"/>
            </g>
            <g transform="matrix(0,-1,-1,0,444.578,80.5877)">
                <path d="M-4.027,-4.027C-11.44,-4.027 -17.45,-2.224 -17.45,-0C-17.45,2.224 -11.44,4.027 -4.027,4.027C3.386,4.027 9.396,2.224 9.396,-0C9.396,-2.224 3.386,-4.027 -4.027,-4.027" style="fill-rule:nonzero;"/>
            </g>
            <g transform="matrix(0,-1,-1,0,394.18,80.5877)">
                <path d="M-4.027,-4.027C-11.44,-4.027 -17.45,-2.224 -17.45,-0C-17.45,2.224 -11.44,4.027 -4.027,4.027C3.386,4.027 9.396,2.224 9.396,-0C9.396,-2.224 3.386,-4.027 -4.027,-4.027" style="fill-rule:nonzero;"/>
            </g>
            <g transform="matrix(1,0,0,1,407.1,111.847)">
                <path d="M0,-3.458C-0.42,-3.216 2.655,-1.21 7.731,-0.392C13.711,0.571 18.992,-0.674 20.052,-0.94C24.058,-1.941 26.45,-3.606 26.091,-3.786C25.609,-4.029 21.015,-1.16 14.012,-0.94C6.355,-0.699 0.548,-3.774 0,-3.458" style="fill-rule:nonzero;"/>
            </g>
            <g transform="matrix(-0.933893,0.357552,0.357552,0.933893,294.691,16.1906)">
                <path d="M-19.481,57.795L-14.783,57.795L-14.786,6.607L-11.286,-5.171L-19.481,57.795Z" style="fill-rule:nonzero;"/>
            </g>
            <g transform="matrix(0.974775,0.223188,0.223188,-0.974775,500.835,62.6134)">
                <path d="M6.76,-1.917L12.441,-1.917L12.444,49.271C13.855,53.196 15.266,57.122 16.677,61.048C13.371,40.06 10.066,19.071 6.76,-1.917" style="fill-rule:nonzero;"/>
            </g>
            <g transform="matrix(1,0,0,1,513.775,137.21)">
                <path d="M0,30.872C-8.525,30.872 -15.436,23.961 -15.436,15.436C-15.436,6.911 -8.525,0 0,0C8.525,0 15.436,6.911 15.436,15.436C15.436,23.961 8.525,30.872 0,30.872" style="fill-rule:nonzero;"/>
            </g>
            <g transform="matrix(1,0,0,1,424.381,254.833)">
                <path d="M0,40.52L-8.473,40.52C-13.639,40.52 -17.827,36.332 -17.827,31.166L-17.827,9.354C-17.827,4.188 -13.639,0 -8.473,0L0,0C5.166,0 9.354,4.188 9.354,9.354L9.354,31.166C9.354,36.332 5.166,40.52 0,40.52Z" style="fill-rule:nonzero;stroke:black;stroke-width:3px;"/>
            </g>
            <g transform="matrix(0.0116948,-0.999932,-0.999932,-0.0116948,427.488,279.152)">
                <path d="M-25.812,-12.373C-24.72,-13.205 -11.229,-4.422 -11.703,7.726C-12.149,19.165 -24.709,26.819 -25.812,25.935C-26.77,25.167 -18.647,18.305 -18.405,7.374C-18.153,-4.089 -26.753,-11.657 -25.812,-12.373" style="fill-rule:nonzero;"/>
            </g>
            <g transform="matrix(0.0116948,-0.999932,-0.999932,-0.0116948,427.488,279.152)">
                <path d="M-25.812,-12.373C-24.72,-13.205 -11.229,-4.422 -11.703,7.726C-12.149,19.165 -24.709,26.819 -25.812,25.935C-26.77,25.167 -18.647,18.305 -18.405,7.374C-18.153,-4.089 -26.753,-11.657 -25.812,-12.373Z" style="fill:none;fill-rule:nonzero;stroke:black;stroke-width:3px;"/>
            </g>
            <g transform="matrix(1,0,0,1,420.144,301.42)">
                <path d="M0,31.795C-6.51,31.795 -11.787,26.518 -11.787,20.008L-11.787,11.787C-11.787,5.277 -6.51,0 0,0C6.51,0 11.787,5.277 11.787,11.787L11.787,20.008C11.787,26.518 6.51,31.795 0,31.795" style="fill-rule:nonzero;"/>
            </g>
            <g transform="matrix(1,0,0,1,420.144,301.42)">
                <path d="M0,31.795C-6.51,31.795 -11.787,26.518 -11.787,20.008L-11.787,11.787C-11.787,5.277 -6.51,0 0,0C6.51,0 11.787,5.277 11.787,11.787L11.787,20.008C11.787,26.518 6.51,31.795 0,31.795Z" style="fill:none;fill-rule:nonzero;stroke:black;stroke-width:3px;"/>
            </g>
            <g transform="matrix(1,0,0,1,508.063,138.619)">
                <path d="M0,134.06L-175.839,134.06C-182.511,134.06 -187.919,128.651 -187.919,121.979L-187.919,12.08C-187.919,5.408 -182.511,0 -175.839,0L0,0C6.672,0 12.081,5.408 12.081,12.08L12.081,121.979C12.081,128.651 6.672,134.06 0,134.06Z" style="fill:white;fill-rule:nonzero;stroke:black;stroke-width:3px;"/>
            </g>
            <g transform="matrix(1,0,0,1,468.445,164.995)">
                <path d="M0,81.309L-96.087,81.309C-106.702,81.309 -115.307,72.704 -115.307,62.09L-115.307,19.219C-115.307,8.604 -106.702,0 -96.087,0L0,0C10.614,0 19.219,8.604 19.219,19.219L19.219,62.09C19.219,72.704 10.614,81.309 0,81.309Z" style="fill:rgb(55,75,160);fill-rule:nonzero;stroke:rgb(105,172,247);stroke-width:9px;"/>
            </g>
            <g transform="matrix(1,0,0,1,370.076,185.941)">
                <path d="M0,0L15.763,0" style="fill:none;fill-rule:nonzero;stroke:rgb(255,207,92);stroke-width:4px;"/>
            </g>
            <g transform="matrix(1,0,0,1,393.134,186.038)">
                <path d="M0,0L29.48,0" style="fill:none;fill-rule:nonzero;stroke:rgb(255,161,139);stroke-width:4px;"/>
            </g>
            <g transform="matrix(1,0,0,1,369.841,194.199)">
                <path d="M0,0L63.893,0" style="fill:none;fill-rule:nonzero;stroke:rgb(209,115,255);stroke-width:4px;"/>
            </g>
            <g transform="matrix(1,0,0,1,400.242,201.286)">
                <path d="M0,0L63.893,0" style="fill:none;fill-rule:nonzero;stroke:rgb(142,255,139);stroke-width:4px;"/>
            </g>
            <g transform="matrix(1,0,0,1,389.635,208.199)">
                <path d="M0,0L63.893,0" style="fill:none;fill-rule:nonzero;stroke:rgb(233,115,255);stroke-width:4px;"/>
            </g>
            <g transform="matrix(1,0,0,1,369.635,215.199)">
                <path d="M0,0L52.979,0" style="fill:none;fill-rule:nonzero;stroke:rgb(226,255,69);stroke-width:4px;"/>
            </g>
            <g transform="matrix(1,0,0,1,396.092,222.199)">
                <path d="M0,0L52.979,0" style="fill:none;fill-rule:nonzero;stroke:rgb(115,0,97);stroke-width:4px;"/>
            </g>
            <g transform="matrix(1,0,0,1,370.092,230.199)">
                <path d="M0,0L15.748,0" style="fill:none;fill-rule:nonzero;stroke:rgb(0,208,29);stroke-width:4px;"/>
            </g>
            <g transform="matrix(1,0,0,1,389.062,230.199)">
                <path d="M0,0L22.132,0" style="fill:none;fill-rule:nonzero;stroke:rgb(0,0,185);stroke-width:4px;"/>
            </g>
            <g transform="matrix(1,0,0,1,370.092,201.199)">
                <path d="M0,0L26.91,0" style="fill:none;fill-rule:nonzero;stroke:rgb(0,0,185);stroke-width:4px;"/>
            </g>
            <g transform="matrix(1,0,0,1,424.481,215.199)">
                <path d="M0,0L26.91,0" style="fill:none;fill-rule:nonzero;stroke:rgb(0,0,185);stroke-width:4px;"/>
            </g>
            <g transform="matrix(1,0,0,1,369.481,222.199)">
                <path d="M0,0L23.653,0" style="fill:none;fill-rule:nonzero;stroke:rgb(255,93,0);stroke-width:4px;"/>
            </g>
            <g transform="matrix(1,0,0,1,450.239,222.199)">
                <path d="M0,0L23.653,0" style="fill:none;fill-rule:nonzero;stroke:rgb(139,255,201);stroke-width:4px;"/>
            </g>
            <g transform="matrix(1,0,0,1,370.239,208.199)">
                <path d="M0,0L16.827,0" style="fill:none;fill-rule:nonzero;stroke:rgb(139,255,201);stroke-width:4px;"/>
            </g>
            <g transform="matrix(1,0,0,1,435.156,194.199)">
                <path d="M0,0L35.007,0" style="fill:none;fill-rule:nonzero;stroke:rgb(253,255,139);stroke-width:4px;"/>
            </g>
            <g transform="matrix(1,0,0,1,454.594,208.199)">
                <path d="M0,0L19.298,0" style="fill:none;fill-rule:nonzero;stroke:rgb(253,255,139);stroke-width:4px;"/>
            </g>
            <g transform="matrix(1,0,0,1,453.528,215.199)">
                <path d="M0,0L19.298,0" style="fill:none;fill-rule:nonzero;stroke:rgb(185,0,151);stroke-width:4px;"/>
            </g>
            <g transform="matrix(1,0,0,1,521.259,217.511)">
                <path d="M0,-63.441C2.306,-65.089 14.462,-55.758 19.871,-42.022C21.482,-37.929 27.228,-23.337 19.871,-13.118C9.239,1.648 -20.523,-4.147 -21.233,-8.174C-21.636,-10.456 -12.995,-13.778 -11.355,-14.409C1.332,-19.287 8.191,-14.792 11.871,-18.28C20.274,-26.243 -3.905,-60.649 0,-63.441" style="fill-rule:nonzero;"/>
            </g>
            <g transform="matrix(1,0,0,1,521.259,217.511)">
                <path d="M0,-63.441C2.306,-65.089 14.462,-55.758 19.871,-42.022C21.482,-37.929 27.228,-23.337 19.871,-13.118C9.239,1.648 -20.523,-4.147 -21.233,-8.174C-21.636,-10.456 -12.995,-13.778 -11.355,-14.409C1.332,-19.287 8.191,-14.792 11.871,-18.28C20.274,-26.243 -3.905,-60.649 0,-63.441Z" style="fill:none;fill-rule:nonzero;stroke:black;stroke-width:3px;"/>
            </g>
            <g transform="matrix(1,0,0,1,485.966,203.838)">
                <path d="M0,14.785C0.53,15.569 6.354,12.233 8.97,10.62C13.424,7.873 14.043,6.754 14.059,5.773C14.086,4.208 12.582,2.872 11.153,1.604C9.725,0.336 8.313,-0.385 7.386,-0.784C7.386,-0.784 7.322,2.285 6.39,5.458C5.138,9.718 -0.547,13.976 0,14.785" style="fill-rule:nonzero;"/>
            </g>
            <g>
                <path d="M450.004,172.657L450.004,177.03L443.673,180.343L450.004,183.656L450.004,188.005L438.796,182.162L438.796,178.488L450.004,172.657Z" style="fill:white;fill-rule:nonzero;"/>
                <path d="M458.651,172.224L453.938,191.788L451.638,191.788L456.339,172.224L458.651,172.224Z" style="fill:white;fill-rule:nonzero;"/>
                <path d="M460.715,188.005L460.715,183.632L467.046,180.319L460.728,177.006L460.728,172.657L471.923,178.5L471.923,182.174L460.715,188.005Z" style="fill:white;fill-rule:nonzero;"/>
                <path d="M166.295,206.906L166.295,241.473L154.774,241.473L154.774,272.679L114.798,272.679L114.798,189.334C114.798,173.203 119.311,160.673 128.337,151.743C137.363,142.813 150.048,138.348 166.393,138.348C182.148,138.348 193.799,142.397 201.348,150.495C208.897,158.592 212.672,171.091 212.672,187.99L212.672,272.679L172.695,272.679L172.695,190.583C172.695,185.462 172.071,181.909 170.824,179.925C169.577,177.94 167.345,176.948 164.129,176.948C157.893,176.948 154.774,181.493 154.774,190.583L154.774,206.906L166.295,206.906Z" style="fill-rule:nonzero;"/>
                <rect x="236.935" y="141.613" width="39.977" height="131.067" style="fill-rule:nonzero;"/>
            </g>
            <g>
                <path d="M611.956,200.023L611.956,234.59L600.436,234.59L600.436,265.797L560.459,265.797L560.459,182.452C560.459,166.32 564.972,153.79 573.998,144.86C583.024,135.93 595.709,131.465 612.054,131.465C627.809,131.465 639.461,135.514 647.01,143.612C654.559,151.71 658.333,164.208 658.333,181.107L658.333,265.797L618.356,265.797L618.356,183.7C618.356,178.579 617.733,175.026 616.485,173.042C615.238,171.057 613.006,170.065 609.79,170.065C603.554,170.065 600.436,174.61 600.436,183.7L600.436,200.023L611.956,200.023Z" style="fill-rule:nonzero;"/>
                <path d="M679.839,134.73L719.816,134.73L719.816,212.602C719.816,218.683 720.817,222.732 722.819,224.748C724.822,226.765 728.777,227.773 734.684,227.773L736.752,227.773L736.752,265.797L726.118,265.797C711.545,265.797 700.189,261.652 692.049,253.362C683.909,245.073 679.839,233.566 679.839,218.843L679.839,134.73Z" style="fill-rule:nonzero;"/>
            </g>
            <g transform="matrix(1,0,0,1,485.966,203.838)">
                <path d="M0,14.785C0.53,15.569 6.354,12.233 8.97,10.62C13.424,7.873 14.043,6.754 14.059,5.773C14.086,4.208 12.582,2.872 11.153,1.604C9.725,0.336 8.313,-0.385 7.386,-0.784C7.386,-0.784 7.322,2.285 6.39,5.458C5.138,9.718 -0.547,13.976 0,14.785Z" style="fill:none;fill-rule:nonzero;stroke:black;stroke-width:3px;"/>
            </g>
            <g transform="matrix(1,0,0,1,319.453,217.221)">
                <path d="M0,-63.441C-2.306,-65.089 -14.462,-55.758 -19.871,-42.022C-21.482,-37.929 -27.228,-23.337 -19.871,-13.118C-9.239,1.648 20.523,-4.147 21.233,-8.174C21.636,-10.456 12.995,-13.778 11.355,-14.409C-1.332,-19.287 -8.191,-14.792 -11.871,-18.28C-20.274,-26.243 3.905,-60.65 0,-63.441" style="fill-rule:nonzero;"/>
            </g>
            <g transform="matrix(1,0,0,1,319.453,217.221)">
                <path d="M0,-63.441C-2.306,-65.089 -14.462,-55.758 -19.871,-42.022C-21.482,-37.929 -27.228,-23.337 -19.871,-13.118C-9.239,1.648 20.523,-4.147 21.233,-8.174C21.636,-10.456 12.995,-13.778 11.355,-14.409C-1.332,-19.287 -8.191,-14.792 -11.871,-18.28C-20.274,-26.243 3.905,-60.65 0,-63.441Z" style="fill:none;fill-rule:nonzero;stroke:black;stroke-width:3px;"/>
            </g>
            <g transform="matrix(1,0,0,1,354.746,203.548)">
                <path d="M0,14.785C-0.53,15.569 -6.354,12.233 -8.97,10.62C-13.424,7.873 -14.043,6.754 -14.059,5.773C-14.086,4.208 -12.582,2.872 -11.153,1.604C-9.725,0.336 -8.313,-0.385 -7.386,-0.784C-7.386,-0.784 -7.322,2.285 -6.39,5.458C-5.138,9.718 0.547,13.976 0,14.785" style="fill-rule:nonzero;"/>
            </g>
            <g transform="matrix(1,0,0,1,354.746,203.548)">
                <path d="M0,14.785C-0.53,15.569 -6.354,12.233 -8.97,10.62C-13.424,7.873 -14.043,6.754 -14.059,5.773C-14.086,4.208 -12.582,2.872 -11.153,1.604C-9.725,0.336 -8.313,-0.385 -7.386,-0.784C-7.386,-0.784 -7.322,2.285 -6.39,5.458C-5.138,9.718 0.547,13.976 0,14.785Z" style="fill:none;fill-rule:nonzero;stroke:black;stroke-width:3px;"/>
            </g>
            <g transform="matrix(0,-1,-1,0,491.442,254.833)">
                <path d="M-5.513,-5.513C-8.558,-5.513 -11.026,-3.045 -11.026,0C-11.026,3.044 -8.558,5.513 -5.513,5.513C-2.468,5.513 0,3.044 0,0C0,-3.045 -2.468,-5.513 -5.513,-5.513" style="fill-rule:nonzero;"/>
            </g>
            <g transform="matrix(0,-1,-1,0,477.419,254.833)">
                <path d="M-5.513,-5.513C-8.558,-5.513 -11.026,-3.045 -11.026,0C-11.026,3.044 -8.558,5.513 -5.513,5.513C-2.468,5.513 0,3.044 0,0C0,-3.045 -2.468,-5.513 -5.513,-5.513" style="fill-rule:nonzero;"/>
            </g>
            <g transform="matrix(0,-1,-1,0,463.177,254.833)">
                <path d="M-5.513,-5.513C-8.558,-5.513 -11.026,-3.045 -11.026,0C-11.026,3.044 -8.558,5.513 -5.513,5.513C-2.468,5.513 0,3.044 0,0C0,-3.045 -2.468,-5.513 -5.513,-5.513" style="fill-rule:nonzero;"/>
            </g>
            <g transform="matrix(1,0,0,1,339.879,260.346)">
                <path d="M0,0L29.806,0" style="fill:none;fill-rule:nonzero;stroke:black;stroke-width:8px;"/>
            </g>
        </g>
    </g>
</svg>
