<?xml version="1.0" encoding="UTF-8" standalone="no"?>
<!DOCTYPE svg PUBLIC "-//W3C//DTD SVG 1.1//EN" "http://www.w3.org/Graphics/SVG/1.1/DTD/svg11.dtd">
<svg width="100%" height="100%" viewBox="0 0 348 348" version="1.1" xmlns="http://www.w3.org/2000/svg" xmlns:xlink="http://www.w3.org/1999/xlink" xml:space="preserve" xmlns:serif="http://www.serif.com/" style="fill-rule:evenodd;clip-rule:evenodd;stroke-miterlimit:10;">
    <g transform="matrix(1,0,0,1,-322.421,-158.486)">
        <g transform="matrix(0.902205,0,0,0.902205,9.66518,36.5408)">
            <rect x="346.657" y="135.163" width="385.024" height="385.024" style="fill:none;"/>
        </g>
        <g id="Layer2">
            <g transform="matrix(1,0,0,1,402.899,294.801)">
                <path d="M0,30.873C8.525,30.873 15.436,23.962 15.436,15.437C15.436,6.912 8.525,0 0,0C-8.525,0 -15.436,6.912 -15.436,15.437C-15.436,23.962 -8.525,30.873 0,30.873" style="fill-rule:nonzero;"/>
            </g>
            <g transform="matrix(1,0,0,1,409.865,214.764)">
                <path d="M0,43.05C-8.525,43.05 -15.436,36.139 -15.436,27.614L-15.436,15.436C-15.436,6.911 -8.525,0 0,0C8.525,0 15.436,6.911 15.436,15.436L15.436,27.614C15.436,36.139 8.525,43.05 0,43.05" style="fill-rule:nonzero;"/>
            </g>
            <g transform="matrix(1,0,0,1,582.348,214.764)">
                <path d="M0,43.05C-8.525,43.05 -15.436,36.139 -15.436,27.614L-15.436,15.436C-15.436,6.911 -8.525,0 0,0C8.525,0 15.436,6.911 15.436,15.436L15.436,27.614C15.436,36.139 8.525,43.05 0,43.05" style="fill-rule:nonzero;"/>
            </g>
            <g transform="matrix(1,0,0,1,570.267,186.457)">
                <path d="M0,99.664L-148.322,99.664C-154.994,99.664 -160.403,94.255 -160.403,87.583L-160.403,12.08C-160.403,5.408 -154.994,0 -148.322,0L0,0C6.672,0 12.081,5.408 12.081,12.08L12.081,87.583C12.081,94.255 6.672,99.664 0,99.664Z" style="fill:white;fill-rule:nonzero;stroke:black;stroke-width:3px;"/>
            </g>
            <g transform="matrix(0,-1,-1,0,520.54,238.47)">
                <path d="M-4.027,-4.027C-11.44,-4.027 -17.45,-2.224 -17.45,-0C-17.45,2.224 -11.44,4.027 -4.027,4.027C3.386,4.027 9.396,2.224 9.396,-0C9.396,-2.224 3.386,-4.027 -4.027,-4.027" style="fill-rule:nonzero;"/>
            </g>
            <g transform="matrix(0,-1,-1,0,470.142,238.47)">
                <path d="M-4.027,-4.027C-11.44,-4.027 -17.45,-2.224 -17.45,-0C-17.45,2.224 -11.44,4.027 -4.027,4.027C3.386,4.027 9.396,2.224 9.396,-0C9.396,-2.224 3.386,-4.027 -4.027,-4.027" style="fill-rule:nonzero;"/>
            </g>
            <g transform="matrix(1,0,0,1,483.062,269.729)">
                <path d="M0,-3.458C-0.42,-3.216 2.655,-1.21 7.731,-0.392C13.711,0.571 18.992,-0.674 20.052,-0.94C24.058,-1.941 26.45,-3.606 26.091,-3.786C25.609,-4.029 21.015,-1.16 14.012,-0.94C6.355,-0.699 0.548,-3.774 0,-3.458" style="fill-rule:nonzero;"/>
            </g>
            <g transform="matrix(-0.933893,0.357552,0.357552,0.933893,370.653,174.073)">
                <path d="M-19.481,57.795L-14.783,57.795L-14.786,6.607L-11.286,-5.171L-19.481,57.795Z" style="fill-rule:nonzero;"/>
            </g>
            <g transform="matrix(0.974775,0.223188,0.223188,-0.974775,576.797,220.496)">
                <path d="M6.76,-1.917L12.441,-1.917L12.444,49.271C13.855,53.196 15.266,57.122 16.677,61.048C13.371,40.06 10.066,19.071 6.76,-1.917" style="fill-rule:nonzero;"/>
            </g>
            <g transform="matrix(1,0,0,1,589.737,295.093)">
                <path d="M0,30.872C-8.525,30.872 -15.436,23.961 -15.436,15.436C-15.436,6.911 -8.525,0 0,0C8.525,0 15.436,6.911 15.436,15.436C15.436,23.961 8.525,30.872 0,30.872" style="fill-rule:nonzero;"/>
            </g>
            <g transform="matrix(1,0,0,1,500.343,412.715)">
                <path d="M0,40.52L-8.473,40.52C-13.639,40.52 -17.827,36.332 -17.827,31.166L-17.827,9.354C-17.827,4.188 -13.639,0 -8.473,0L0,0C5.166,0 9.354,4.188 9.354,9.354L9.354,31.166C9.354,36.332 5.166,40.52 0,40.52Z" style="fill-rule:nonzero;stroke:black;stroke-width:3px;"/>
            </g>
            <g transform="matrix(0.0116948,-0.999932,-0.999932,-0.0116948,503.45,437.034)">
                <path d="M-25.812,-12.373C-24.72,-13.205 -11.229,-4.422 -11.703,7.726C-12.149,19.165 -24.709,26.819 -25.812,25.935C-26.77,25.167 -18.647,18.305 -18.405,7.374C-18.153,-4.089 -26.753,-11.657 -25.812,-12.373" style="fill-rule:nonzero;"/>
            </g>
            <g transform="matrix(0.0116948,-0.999932,-0.999932,-0.0116948,503.45,437.034)">
                <path d="M-25.812,-12.373C-24.72,-13.205 -11.229,-4.422 -11.703,7.726C-12.149,19.165 -24.709,26.819 -25.812,25.935C-26.77,25.167 -18.647,18.305 -18.405,7.374C-18.153,-4.089 -26.753,-11.657 -25.812,-12.373Z" style="fill:none;fill-rule:nonzero;stroke:black;stroke-width:3px;"/>
            </g>
            <g transform="matrix(1,0,0,1,496.106,459.303)">
                <path d="M0,31.795C-6.51,31.795 -11.787,26.518 -11.787,20.008L-11.787,11.787C-11.787,5.277 -6.51,0 0,0C6.51,0 11.787,5.277 11.787,11.787L11.787,20.008C11.787,26.518 6.51,31.795 0,31.795" style="fill-rule:nonzero;"/>
            </g>
            <g transform="matrix(1,0,0,1,496.106,459.303)">
                <path d="M0,31.795C-6.51,31.795 -11.787,26.518 -11.787,20.008L-11.787,11.787C-11.787,5.277 -6.51,0 0,0C6.51,0 11.787,5.277 11.787,11.787L11.787,20.008C11.787,26.518 6.51,31.795 0,31.795Z" style="fill:none;fill-rule:nonzero;stroke:black;stroke-width:3px;"/>
            </g>
            <g transform="matrix(1,0,0,1,584.026,296.502)">
                <path d="M0,134.06L-175.839,134.06C-182.511,134.06 -187.919,128.651 -187.919,121.979L-187.919,12.08C-187.919,5.408 -182.511,0 -175.839,0L0,0C6.672,0 12.081,5.408 12.081,12.08L12.081,121.979C12.081,128.651 6.672,134.06 0,134.06Z" style="fill:white;fill-rule:nonzero;stroke:black;stroke-width:3px;"/>
            </g>
            <g transform="matrix(1,0,0,1,544.407,322.877)">
                <path d="M0,81.309L-96.087,81.309C-106.702,81.309 -115.307,72.704 -115.307,62.09L-115.307,19.219C-115.307,8.604 -106.702,0 -96.087,0L0,0C10.614,0 19.219,8.604 19.219,19.219L19.219,62.09C19.219,72.704 10.614,81.309 0,81.309Z" style="fill:rgb(55,75,160);fill-rule:nonzero;stroke:rgb(105,172,247);stroke-width:9px;"/>
            </g>
            <g transform="matrix(1,0,0,1,446.038,343.824)">
                <path d="M0,0L15.763,0" style="fill:none;fill-rule:nonzero;stroke:rgb(255,207,92);stroke-width:4px;"/>
            </g>
            <g transform="matrix(1,0,0,1,469.097,343.92)">
                <path d="M0,0L29.48,0" style="fill:none;fill-rule:nonzero;stroke:rgb(255,161,139);stroke-width:4px;"/>
            </g>
            <g transform="matrix(1,0,0,1,445.804,352.082)">
                <path d="M0,0L63.893,0" style="fill:none;fill-rule:nonzero;stroke:rgb(209,115,255);stroke-width:4px;"/>
            </g>
            <g transform="matrix(1,0,0,1,476.204,359.169)">
                <path d="M0,0L63.893,0" style="fill:none;fill-rule:nonzero;stroke:rgb(142,255,139);stroke-width:4px;"/>
            </g>
            <g transform="matrix(1,0,0,1,465.597,366.082)">
                <path d="M0,0L63.893,0" style="fill:none;fill-rule:nonzero;stroke:rgb(233,115,255);stroke-width:4px;"/>
            </g>
            <g transform="matrix(1,0,0,1,445.597,373.082)">
                <path d="M0,0L52.979,0" style="fill:none;fill-rule:nonzero;stroke:rgb(226,255,69);stroke-width:4px;"/>
            </g>
            <g transform="matrix(1,0,0,1,472.054,380.082)">
                <path d="M0,0L52.979,0" style="fill:none;fill-rule:nonzero;stroke:rgb(115,0,97);stroke-width:4px;"/>
            </g>
            <g transform="matrix(1,0,0,1,446.054,388.082)">
                <path d="M0,0L15.748,0" style="fill:none;fill-rule:nonzero;stroke:rgb(0,208,29);stroke-width:4px;"/>
            </g>
            <g transform="matrix(1,0,0,1,465.025,388.082)">
                <path d="M0,0L22.132,0" style="fill:none;fill-rule:nonzero;stroke:rgb(0,0,185);stroke-width:4px;"/>
            </g>
            <g transform="matrix(1,0,0,1,446.054,359.082)">
                <path d="M0,0L26.91,0" style="fill:none;fill-rule:nonzero;stroke:rgb(0,0,185);stroke-width:4px;"/>
            </g>
            <g transform="matrix(1,0,0,1,500.443,373.082)">
                <path d="M0,0L26.91,0" style="fill:none;fill-rule:nonzero;stroke:rgb(0,0,185);stroke-width:4px;"/>
            </g>
            <g transform="matrix(1,0,0,1,445.443,380.082)">
                <path d="M0,0L23.653,0" style="fill:none;fill-rule:nonzero;stroke:rgb(255,93,0);stroke-width:4px;"/>
            </g>
            <g transform="matrix(1,0,0,1,526.201,380.082)">
                <path d="M0,0L23.653,0" style="fill:none;fill-rule:nonzero;stroke:rgb(139,255,201);stroke-width:4px;"/>
            </g>
            <g transform="matrix(1,0,0,1,446.201,366.082)">
                <path d="M0,0L16.827,0" style="fill:none;fill-rule:nonzero;stroke:rgb(139,255,201);stroke-width:4px;"/>
            </g>
            <g transform="matrix(1,0,0,1,511.118,352.082)">
                <path d="M0,0L35.007,0" style="fill:none;fill-rule:nonzero;stroke:rgb(253,255,139);stroke-width:4px;"/>
            </g>
            <g transform="matrix(1,0,0,1,530.556,366.082)">
                <path d="M0,0L19.298,0" style="fill:none;fill-rule:nonzero;stroke:rgb(253,255,139);stroke-width:4px;"/>
            </g>
            <g transform="matrix(1,0,0,1,529.49,373.082)">
                <path d="M0,0L19.298,0" style="fill:none;fill-rule:nonzero;stroke:rgb(185,0,151);stroke-width:4px;"/>
            </g>
            <g transform="matrix(1,0,0,1,597.221,375.394)">
                <path d="M0,-63.441C2.306,-65.089 14.462,-55.758 19.871,-42.022C21.482,-37.929 27.228,-23.337 19.871,-13.118C9.239,1.648 -20.523,-4.147 -21.233,-8.174C-21.636,-10.456 -12.995,-13.778 -11.355,-14.409C1.332,-19.287 8.191,-14.792 11.871,-18.28C20.274,-26.243 -3.905,-60.649 0,-63.441" style="fill-rule:nonzero;"/>
            </g>
            <g transform="matrix(1,0,0,1,597.221,375.394)">
                <path d="M0,-63.441C2.306,-65.089 14.462,-55.758 19.871,-42.022C21.482,-37.929 27.228,-23.337 19.871,-13.118C9.239,1.648 -20.523,-4.147 -21.233,-8.174C-21.636,-10.456 -12.995,-13.778 -11.355,-14.409C1.332,-19.287 8.191,-14.792 11.871,-18.28C20.274,-26.243 -3.905,-60.649 0,-63.441Z" style="fill:none;fill-rule:nonzero;stroke:black;stroke-width:3px;"/>
            </g>
            <g transform="matrix(1,0,0,1,561.928,361.72)">
                <path d="M0,14.785C0.53,15.569 6.354,12.233 8.97,10.62C13.424,7.873 14.043,6.754 14.059,5.773C14.086,4.208 12.582,2.872 11.153,1.604C9.725,0.336 8.313,-0.385 7.386,-0.784C7.386,-0.784 7.322,2.285 6.39,5.458C5.138,9.718 -0.547,13.976 0,14.785" style="fill-rule:nonzero;"/>
            </g>
            <g transform="matrix(1,0,0,1,561.928,361.72)">
                <path d="M0,14.785C0.53,15.569 6.354,12.233 8.97,10.62C13.424,7.873 14.043,6.754 14.059,5.773C14.086,4.208 12.582,2.872 11.153,1.604C9.725,0.336 8.313,-0.385 7.386,-0.784C7.386,-0.784 7.322,2.285 6.39,5.458C5.138,9.718 -0.547,13.976 0,14.785Z" style="fill:none;fill-rule:nonzero;stroke:black;stroke-width:3px;"/>
            </g>
            <g transform="matrix(1,0,0,1,395.415,375.103)">
                <path d="M0,-63.441C-2.306,-65.089 -14.462,-55.758 -19.871,-42.022C-21.482,-37.929 -27.228,-23.337 -19.871,-13.118C-9.239,1.648 20.523,-4.147 21.233,-8.174C21.636,-10.456 12.995,-13.778 11.355,-14.409C-1.332,-19.287 -8.191,-14.792 -11.871,-18.28C-20.274,-26.243 3.905,-60.65 0,-63.441" style="fill-rule:nonzero;"/>
            </g>
            <g transform="matrix(1,0,0,1,395.415,375.103)">
                <path d="M0,-63.441C-2.306,-65.089 -14.462,-55.758 -19.871,-42.022C-21.482,-37.929 -27.228,-23.337 -19.871,-13.118C-9.239,1.648 20.523,-4.147 21.233,-8.174C21.636,-10.456 12.995,-13.778 11.355,-14.409C-1.332,-19.287 -8.191,-14.792 -11.871,-18.28C-20.274,-26.243 3.905,-60.65 0,-63.441Z" style="fill:none;fill-rule:nonzero;stroke:black;stroke-width:3px;"/>
            </g>
            <g transform="matrix(1,0,0,1,430.708,361.43)">
                <path d="M0,14.785C-0.53,15.569 -6.354,12.233 -8.97,10.62C-13.424,7.873 -14.043,6.754 -14.059,5.773C-14.086,4.208 -12.582,2.872 -11.153,1.604C-9.725,0.336 -8.313,-0.385 -7.386,-0.784C-7.386,-0.784 -7.322,2.285 -6.39,5.458C-5.138,9.718 0.547,13.976 0,14.785" style="fill-rule:nonzero;"/>
            </g>
            <g transform="matrix(1,0,0,1,430.708,361.43)">
                <path d="M0,14.785C-0.53,15.569 -6.354,12.233 -8.97,10.62C-13.424,7.873 -14.043,6.754 -14.059,5.773C-14.086,4.208 -12.582,2.872 -11.153,1.604C-9.725,0.336 -8.313,-0.385 -7.386,-0.784C-7.386,-0.784 -7.322,2.285 -6.39,5.458C-5.138,9.718 0.547,13.976 0,14.785Z" style="fill:none;fill-rule:nonzero;stroke:black;stroke-width:3px;"/>
            </g>
            <g transform="matrix(0,-1,-1,0,567.404,412.715)">
                <path d="M-5.513,-5.513C-8.558,-5.513 -11.026,-3.045 -11.026,0C-11.026,3.044 -8.558,5.513 -5.513,5.513C-2.468,5.513 0,3.044 0,0C0,-3.045 -2.468,-5.513 -5.513,-5.513" style="fill-rule:nonzero;"/>
            </g>
            <g transform="matrix(0,-1,-1,0,553.381,412.715)">
                <path d="M-5.513,-5.513C-8.558,-5.513 -11.026,-3.045 -11.026,0C-11.026,3.044 -8.558,5.513 -5.513,5.513C-2.468,5.513 0,3.044 0,0C0,-3.045 -2.468,-5.513 -5.513,-5.513" style="fill-rule:nonzero;"/>
            </g>
            <g transform="matrix(0,-1,-1,0,539.139,412.715)">
                <path d="M-5.513,-5.513C-8.558,-5.513 -11.026,-3.045 -11.026,0C-11.026,3.044 -8.558,5.513 -5.513,5.513C-2.468,5.513 0,3.044 0,0C0,-3.045 -2.468,-5.513 -5.513,-5.513" style="fill-rule:nonzero;"/>
            </g>
            <g transform="matrix(1,0,0,1,415.842,418.228)">
                <path d="M0,0L29.806,0" style="fill:none;fill-rule:nonzero;stroke:black;stroke-width:8px;"/>
            </g>
        </g>
    </g>
</svg>
